<?xml version="1.0" encoding="utf-8"?> <!-- Generator: IcoMoon.io --> <!DOCTYPE svg PUBLIC "-//W3C//DTD SVG 1.1//EN" "http://www.w3.org/Graphics/SVG/1.1/DTD/svg11.dtd"> <svg width="352" height="448" viewBox="0 0 352 448" xmlns="http://www.w3.org/2000/svg" xmlns:xlink="http://www.w3.org/1999/xlink" fill="#ffffff"><path d="M 96.00,336.00q0.00,20.00 -14.00,34.00t-34.00,14.00t-34.00-14.00t-14.00-34.00t 14.00-34.00t 34.00-14.00t 34.00,14.00t 14.00,34.00zM 224.00,366.75q 0.50,7.00 -4.25,12.00q-4.50,5.25 -11.75,5.25l-33.75,0.00 q-6.25,0.00 -10.75-4.125t-5.00-10.375q-5.50-57.25 -46.125-97.875t-97.875-46.125q-6.25-0.50 -10.375-5.00t-4.125-10.75l0.00-33.75 q0.00-7.25 5.25-11.75q 4.25-4.25 10.75-4.25l 1.25,0.00 q 40.00,3.25 76.50,20.125 t 64.75,45.375q 28.50,28.25 45.375,64.75t 20.125,76.50zM 352.00,367.25q 0.50,6.75 -4.50,11.75q-4.50,5.00 -11.50,5.00l-35.75,0.00 q-6.50,0.00 -11.125-4.375t-4.875-10.625q-3.00-53.75 -25.25-102.125t-57.875-84.00t-84.00-57.875t-102.125-25.50q-6.25-0.25 -10.625-4.875t-4.375-10.875l0.00-35.75 q0.00-7.00 5.00-11.50q 4.50-4.50 11.00-4.50l 0.75,0.00 q 65.50,3.25 125.375,30.00t 106.375,73.50 q 46.75,46.50 73.50,106.375t 30.00,125.375z" ></path></svg>